# xmcd
#
# Track frame offsets: 
#        150
#        10210
#        24502
#        37265
#        48490
#        63492
#        76807
#        88337
#        102187
#        114315
#        126655
#        140167
#        149692
#        161207
#        173347
#        184342
#        195107
#        206700
#        217765
#
# Disc length: 3068 seconds
#
# Revision: 0
# Processed by: cddbd v1.5.1PL0 Copyright (c) Steve Scherf et al.
# Submitted via: ExactAudioCopy v0.95a5
#
DISCID=160bfa13
DTITLE=Jackie Wilson - The Essential Masters With Billy Ward and His Dom
DTITLE=inoes
DYEAR=2004
DGENRE=R&B/Soul
TTITLE0=You Can't Keep A Good Man Down
TTITLE1=Until The Real Thing Comes Along
TTITLE2=I'm Gonna Move To The Outskirst Of Town
TTITLE3=Above Jacob's Ladder
TTITLE4=Love Me Now Or Let Me Go
TTITLE5=Bobby Sox Baby
TTITLE6=St. Louis Blues
TTITLE7=One Moment With You
TTITLE8=Rags To Riches
TTITLE9=Christmas In Heaven
TTITLE10=Tenderly
TTITLE11=A Little Lie
TTITLE12=Three Coins In The Fountain
TTITLE13=Little Things Mean A Lot
TTITLE14=Learnin' The Blues
TTITLE15=Give Me You
TTITLE16=That's How You Know You're Getting Old
TTITLE17=The Rainy Day Blues (Billed As Sonny Wilson With The Billy Mi
TTITLE17=tchell Band)
TTITLE18=Danny Boy (Billed As Sonny Wilson With The Billy Mitchell Ban
TTITLE18=d)
EXTD=
EXTT0=
EXTT1=
EXTT2=
EXTT3=
EXTT4=
EXTT5=
EXTT6=
EXTT7=
EXTT8=
EXTT9=
EXTT10=
EXTT11=
EXTT12=
EXTT13=
EXTT14=
EXTT15=
EXTT16=
EXTT17=
EXTT18=
PLAYORDER=
